<?xml version="1.0" encoding="utf-8"?>
<svg version="1.1" xmlns="http://www.w3.org/2000/svg" xmlns:xlink="http://www.w3.org/1999/xlink" x="0px" y="0px"
	 viewBox="0 0 500 500" style="enable-background:new 0 0 500 500;" xml:space="preserve">
<g id="BACKGROUND">
	<rect style="fill:#7DB8E5;" width="500" height="500"/>
	<g style="opacity:0.1;">
		<defs>
			<rect id="SVGID_1_" style="opacity:0.1;" width="500" height="500"/>
		</defs>
		<clipPath id="SVGID_00000036972402086594208370000002268348519239167617_">
			<use xlink:href="#SVGID_1_"  style="overflow:visible;"/>
		</clipPath>
		<g style="clip-path:url(#SVGID_00000036972402086594208370000002268348519239167617_);">
			<g>
				<path style="fill:none;stroke:#335C81;stroke-width:2;stroke-miterlimit:10;" d="M-143.216,119.007v130.957h-57.861v-0.912
					c0-4.379,1.66-8.667,4.89-11.641c3.722-3.449,6.04-8.412,5.93-13.904c-0.165-9.634-8.065-17.718-17.699-18.083
					c-10.528-0.401-19.177,7.992-19.177,18.429c0,5.182,2.117,9.853,5.547,13.192c3.266,3.193,5.292,7.445,5.292,12.025v0.894
					h-57.878V119.007h57.86v-0.894c0-4.58-2.007-8.831-5.273-12.025c-3.43-3.339-5.565-8.01-5.565-13.192
					c0-10.419,8.667-18.831,19.177-18.429c9.634,0.383,17.535,8.448,17.718,18.082c0.091,5.51-2.208,10.474-5.949,13.904
					c-3.211,2.974-4.872,7.262-4.872,11.641v0.912H-143.216z"/>
			</g>
		</g>
	</g>
</g>
<g id="OBJECTS">
	<g>
		<path style="fill:#FFFFFF;" d="M331.569,412.94c-2.275,0.15-8.709-1.159-11.97-8.271c-7.725-16.754-15.944-31.322-25.13-44.535
			c-13.357-19.642-32.706-40.996-52.142-59.436c-8.873,8.392-18.79,19.529-27.485,28.385l-0.102-0.241
			c-9.261,10.444-17.642,20.523-24.598,30.696c-9.39,13.316-17.711,27.844-25.435,44.414c-3.316,7.202-11.413,10.18-18.197,6.675
			c-6.28-3.925-16.899-8.306-25.529-10.553c-6.471-1.714-12.839-2.948-19.104-2.395c-18.466-1.343-10.37-23.41-6.846-34.732
			c14.87-48.252,48.872-89.466,86.73-122.2c-30.544-32.28-49.347-76.379-41.798-120.913c10.256-48.949,49.093-78.93,101.789-80.13
			c106.413,2.559,131.938,111.31,73.685,185.682l0.363,0.221c-3.446,4.225-9.546,11.811-13.108,15.694
			c35.088,29.305,64.728,65.311,81.495,107.999c3.481,12.407,14.13,30.822,7.17,42.68c-7.32,8.607-17.665,3.43-28.93,8.316
			c-5.056,1.401-10.526,3.574-15.203,5.688C339.176,409.244,338.558,412.512,331.569,412.94z M211.053,163.727
			c7.766,9.834,19.893,21.216,31.092,29.9c11.598-9.42,25.232-20.481,32.344-32.177c7.88-13.452,14.601-30.304,11.905-45.525
			c-2.531-15.528-14.251-27.146-26.273-36.812c-16.498-7.761-36.015-3.983-47.59,10.573
			C189.857,111.789,195.936,139.078,211.053,163.727z"/>
		<g>
			<path style="fill:#FFD066;" d="M218.287,70.514c0,0,9.637-5.551,23.979-5.551c14.342,0,24.407,5.965,24.407,5.965l7.479-15.937
				c0,0-14.472-5.016-32.399-5.016s-32.342,5.34-32.342,5.34L218.287,70.514z"/>
			<g>
				<path style="fill:#E9E9E9;" d="M240.355,245.268c5.601,5.889,11.128,2.806,11.742,2.431c3.681-2.239,4.715-5.538,4.945-7.874
					c0.369-3.821,2.253-5.553,2.956-6.221l0.12-0.106l0.004-0.003l4.25-3.795c-1.657-1.939-3.395-3.848-5.189-5.696l-4.266,3.678
					l-0.004,0.003l0.003,0.004l-0.128,0.109c-2.494,2.041-4.802,2.135-6.31,2.028c-3.6-0.257-6.603,0.948-8.912,3.656
					C237.255,236.178,236.898,241.467,240.355,245.268"/>
				<path style="fill:#83D0C9;" d="M297.297,182.62c2.072,1.124,4.109,2.318,6.075,3.576c0.538-0.893,1.065-1.795,1.556-2.72
					c0.502-0.918,1.012-1.829,1.467-2.776l0.081-0.163c0.32-0.612,0.657-1.169,1.014-1.676c0.339-0.517,0.697-0.986,1.083-1.41
					c0.385-0.424,0.797-0.804,1.237-1.145c0.428-0.338,0.873-0.633,1.359-0.893c1.111-0.597,2.047-1.367,2.822-2.244
					c0.778-0.875,1.34-1.887,1.796-2.921c0.926-2.062,1.175-4.334,1.107-6.224c-0.167-3.007-1.426-5.481-3.278-6.717
					c-1.874-1.251-4.278-1.275-6.982,0.306c-2.02,1.218-3.895,3.219-5.021,5.569c-0.594,1.17-0.994,2.434-1.129,3.751
					c-0.168,1.308-0.079,2.667,0.356,4.037c0.927,2.916,0.167,5.104-0.546,6.491l-0.076,0.144c-0.435,0.859-0.936,1.69-1.417,2.529
					C298.33,180.977,297.815,181.8,297.297,182.62"/>
				<g>
					<path style="fill:#335C81;" d="M297.952,118.659c1.874-1.394,4.341-2.902,7.379-4.391c1.822-0.891,3.687-1.696,5.612-2.39
						c-0.255-0.871-0.472-1.756-0.758-2.618c-0.292-0.86-0.555-1.732-0.87-2.585c1.375-0.637,2.779-1.208,4.199-1.692
						c0.71,1.814,1.354,3.655,1.912,5.523c5.241-1.321,10.571-1.532,15.006-0.124c0.277-0.014,1.03-0.053,0.182-2.654
						c-1.177-3.207-2.462-6.369-4.036-9.378c-0.742-1.523-1.61-2.98-2.431-4.448c-0.89-1.43-1.743-2.875-2.703-4.242
						c-3.722-5.545-8.082-10.493-12.801-14.786c-4.688-4.337-9.754-8.01-14.973-11.164c-5.212-3.167-10.611-5.781-16.078-7.971
						c-1.692-0.647-2.794-0.856-3.438-0.745c-2.849,1.046-5.375,3.646-6.734,6.012c1.732,0.799,1.219,1.835-0.448,0.986
						c-0.328,0.993-0.759,2.534-0.84,3.645c-0.135,1.853,0.081,3.653,0.543,5.294c0.123,0.25,0.483,0.869,2.138,2.18
						c3.949,3.078,7.629,6.363,10.929,9.827c3.298,3.471,6.208,7.122,8.656,10.885c2.418,3.787,4.375,7.668,5.808,11.605
						c0.684,1.983,1.318,3.946,1.736,5.953c0.126,0.493,0.225,0.995,0.319,1.495c0.094,0.501,0.209,0.991,0.29,1.492
						c0.14,1.01,0.329,1.993,0.409,3.007C297.209,118.976,297.723,118.812,297.952,118.659"/>
					<path style="fill:#335C81;" d="M315.763,133.462c2.626-0.124,4.226-1.809,5.019-3.622c0.398-0.903,0.63-1.826,0.765-2.568
						c0.119-0.743,0.125-1.306,0.131-1.496c0.06-2.291-0.421-4.199-0.979-5.712c-0.635-1.509-1.348-2.633-2.025-3.416
						c-2.178-2.546-2.886-5.023-3.198-5.981l-0.049-0.157l-0.002-0.005c-0.558-1.868-1.202-3.709-1.912-5.523
						c-1.42,0.485-2.825,1.055-4.199,1.692c0.315,0.853,0.578,1.725,0.87,2.585c0.286,0.863,0.503,1.747,0.758,2.618l0.001,0.005
						l0.003-0.001l0.044,0.157c0.362,1.516,0.419,2.754,0.313,3.745c-0.123,0.997-0.373,1.743-0.603,2.301
						c-1.166,2.679-1.472,5.487-1.041,8.696c0.143,0.798,0.342,1.61,0.676,2.379c0.324,0.77,0.797,1.499,1.295,2.138
						C312.657,132.57,314.094,133.485,315.763,133.462"/>
					<path style="fill:#335C81;" d="M271.979,65.026c0.237-0.602,0.526-1.173,0.864-1.711c-1.25-0.649-2.506-1.286-3.783-1.877
						l-0.111-0.052c-1.676-0.792-2.89-1.502-3.842-2.23c-2.187-1.681-5.603-2.633-7.964-3.034c-1.86-0.314-3.278-0.309-3.828-0.079
						c-0.548,0.246-0.234,0.68,1.21,1.542c1.103,0.661,2.724,1.489,4.435,2.26c1.715,0.762,3.521,1.462,5.089,1.715
						c1.674,0.263,3.207,0.925,4.191,1.428l0.103,0.054C269.575,63.671,270.78,64.344,271.979,65.026"/>
					<path style="fill:#7DB8E5;" d="M282.797,171.171c2.756,0.611,6.154,1.598,9.964,2.969c2.571,0.924,5.179,1.967,7.743,3.124
						l0.071-0.135c0.324-0.647,0.688-1.482,0.819-2.51c0.147-1.022,0.12-2.195-0.32-3.583c-0.665-2.107-0.448-4.079,0.126-5.856
						c0.294-0.886,0.727-1.711,1.187-2.474c0.453-0.764,0.976-1.457,1.522-2.058c0.889-0.958,1.88-1.732,2.921-2.281
						c1.048-0.546,2.156-0.865,3.229-0.899c2.148-0.066,4.162,1.001,5.328,3.792c1.777,4.227,0.43,11.311-4.655,13.935
						c-0.575,0.305-1.254,0.743-2.033,1.491c-0.772,0.741-1.533,1.798-2.337,3.28l-0.078,0.157c3.045,1.652,5.924,3.476,8.486,5.445
						c2.568,1.975,4.794,4.073,6.546,6.231c1.213,1.051,2.615,0.172,3.974-2.85c0.669-1.483,1.243-3.072,1.848-4.607
						c0.16-0.402,0.28-0.75,0.395-1.093l0.356-1.044l0.709-2.086c0.48-1.38,0.893-2.81,1.317-4.23
						c0.425-1.418,0.849-2.831,1.216-4.288c1.549-5.756,2.817-11.673,3.637-17.77c0.812-6.092,1.161-12.348,0.961-18.675
						c-0.204-6.326-1.032-12.734-2.587-18.996c-0.152-0.573-0.324-1.186-0.549-1.795c-0.236-0.608-0.506-1.212-0.809-1.771
						c-0.597-1.119-1.345-2.049-2.243-2.466c-4.247-1.122-9.22-0.851-14.115,0.38l0.049,0.157c0.264,0.758,0.511,1.488,0.849,2.178
						c0.328,0.692,0.71,1.355,1.07,2.018c0.372,0.66,0.773,1.309,1.183,1.963c0.399,0.656,0.771,1.322,1.148,2.004
						c1.482,2.712,2.615,5.828,1.537,9.722c-0.399,1.434-1.04,2.565-1.865,3.372c-0.809,0.809-1.744,1.298-2.711,1.474
						c-1.934,0.351-3.989-0.531-5.378-2.535c-0.613-0.844-1.072-1.805-1.353-2.836c-0.295-1.03-0.492-2.122-0.492-3.248
						c-0.053-1.118,0.042-2.266,0.261-3.399c0.176-1.124,0.537-2.247,0.975-3.297c0.23-0.559,0.48-1.304,0.603-2.301
						c0.107-0.992,0.049-2.229-0.313-3.745l-0.044-0.157l-0.003,0.001c-1.926,0.694-3.79,1.499-5.612,2.39
						c-2.71,1.328-4.982,2.68-6.755,3.94c-0.441,0.425-0.78,1.009-0.987,1.731c-0.19,0.718-0.322,1.597-0.332,2.621
						c0.078,7.617-1.447,15.394-4.134,23.163c-1.329,3.889-2.908,7.775-4.797,11.633c-0.445,0.964-0.972,1.927-1.449,2.888
						c-0.469,0.962-1.007,1.917-1.521,2.879c-0.509,0.932-1.045,2.013-1.5,2.692l-0.697,1.148l-0.763,1.146
						c-0.698,1.167-0.79,1.896-0.546,2.357C282.074,170.929,282.556,171.11,282.797,171.171"/>
				</g>
			</g>
		</g>
	</g>
	<g>
		<text transform="matrix(1.1759 0 0 1 250 320)" style="fill:#FFD066; font-family:'Inter', sans-serif; font-size:36px; font-weight: 600;">Vivências Azuis</text>
	</g>
</g>
</svg>
